<svg xmlns="http://www.w3.org/2000/svg" xmlns:xlink="http://www.w3.org/1999/xlink" width="128" zoomAndPan="magnify" viewBox="0 0 96 95.999999" height="128" preserveAspectRatio="xMidYMid meet" version="1.0"><defs><clipPath id="3e6a61d054"><path d="M 96 48 C 96 49.570312 95.921875 51.140625 95.769531 52.703125 C 95.613281 54.269531 95.382812 55.824219 95.078125 57.363281 C 94.769531 58.90625 94.390625 60.429688 93.933594 61.933594 C 93.476562 63.4375 92.949219 64.917969 92.347656 66.367188 C 91.746094 67.820312 91.074219 69.242188 90.332031 70.628906 C 89.589844 72.011719 88.785156 73.359375 87.910156 74.667969 C 87.039062 75.972656 86.101562 77.234375 85.105469 78.449219 C 84.105469 79.667969 83.054688 80.828125 81.941406 81.941406 C 80.828125 83.054688 79.667969 84.105469 78.449219 85.105469 C 77.234375 86.101562 75.972656 87.039062 74.667969 87.910156 C 73.359375 88.785156 72.011719 89.589844 70.628906 90.332031 C 69.242188 91.074219 67.820312 91.746094 66.367188 92.347656 C 64.917969 92.949219 63.4375 93.476562 61.933594 93.933594 C 60.429688 94.390625 58.90625 94.769531 57.363281 95.078125 C 55.824219 95.382812 54.269531 95.613281 52.703125 95.769531 C 51.140625 95.921875 49.570312 96 48 96 C 46.429688 96 44.859375 95.921875 43.296875 95.769531 C 41.730469 95.613281 40.175781 95.382812 38.636719 95.078125 C 37.09375 94.769531 35.570312 94.390625 34.066406 93.933594 C 32.5625 93.476562 31.082031 92.949219 29.632812 92.347656 C 28.179688 91.746094 26.757812 91.074219 25.371094 90.332031 C 23.988281 89.589844 22.640625 88.785156 21.332031 87.910156 C 20.027344 87.039062 18.765625 86.101562 17.550781 85.105469 C 16.332031 84.105469 15.171875 83.054688 14.058594 81.941406 C 12.945312 80.828125 11.894531 79.667969 10.894531 78.449219 C 9.898438 77.234375 8.960938 75.972656 8.089844 74.667969 C 7.214844 73.359375 6.410156 72.011719 5.667969 70.628906 C 4.925781 69.242188 4.253906 67.820312 3.652344 66.367188 C 3.050781 64.917969 2.523438 63.4375 2.066406 61.933594 C 1.609375 60.429688 1.230469 58.90625 0.921875 57.363281 C 0.617188 55.824219 0.386719 54.269531 0.230469 52.703125 C 0.078125 51.140625 0 49.570312 0 48 C 0 46.429688 0.078125 44.859375 0.230469 43.296875 C 0.386719 41.730469 0.617188 40.175781 0.921875 38.636719 C 1.230469 37.09375 1.609375 35.570312 2.066406 34.066406 C 2.523438 32.5625 3.050781 31.082031 3.652344 29.632812 C 4.253906 28.179688 4.925781 26.757812 5.667969 25.371094 C 6.410156 23.988281 7.214844 22.640625 8.089844 21.332031 C 8.960938 20.027344 9.898438 18.765625 10.894531 17.550781 C 11.894531 16.332031 12.945312 15.171875 14.058594 14.058594 C 15.171875 12.945312 16.332031 11.894531 17.550781 10.894531 C 18.765625 9.898438 20.027344 8.960938 21.332031 8.089844 C 22.640625 7.214844 23.988281 6.410156 25.371094 5.667969 C 26.757812 4.925781 28.179688 4.253906 29.632812 3.652344 C 31.082031 3.050781 32.5625 2.523438 34.066406 2.066406 C 35.570312 1.609375 37.09375 1.230469 38.636719 0.921875 C 40.175781 0.617188 41.730469 0.386719 43.296875 0.230469 C 44.859375 0.078125 46.429688 0 48 0 C 49.570312 0 51.140625 0.078125 52.703125 0.230469 C 54.269531 0.386719 55.824219 0.617188 57.363281 0.921875 C 58.90625 1.230469 60.429688 1.609375 61.933594 2.066406 C 63.4375 2.523438 64.917969 3.050781 66.367188 3.652344 C 67.820312 4.253906 69.242188 4.925781 70.628906 5.667969 C 72.011719 6.410156 73.359375 7.214844 74.667969 8.089844 C 75.972656 8.960938 77.234375 9.898438 78.449219 10.894531 C 79.667969 11.894531 80.828125 12.945312 81.941406 14.058594 C 83.054688 15.171875 84.105469 16.332031 85.105469 17.550781 C 86.101562 18.765625 87.039062 20.027344 87.910156 21.332031 C 88.785156 22.640625 89.589844 23.988281 90.332031 25.371094 C 91.074219 26.757812 91.746094 28.179688 92.347656 29.632812 C 92.949219 31.082031 93.476562 32.5625 93.933594 34.066406 C 94.390625 35.570312 94.769531 37.09375 95.078125 38.636719 C 95.382812 40.175781 95.613281 41.730469 95.769531 43.296875 C 95.921875 44.859375 96 46.429688 96 48 Z M 96 48 " clip-rule="nonzero"/></clipPath><linearGradient x1="0.000000000000028422" gradientTransform="matrix(0.1875, 0, 0, 0.1875, 0.0000005, 0.000002)" y1="0.000000000000028422" x2="511.999979" gradientUnits="userSpaceOnUse" y2="511.999979" id="dc0d40e8e0"><stop stop-opacity="1" stop-color="rgb(0%, 85.899353%, 87.098694%)" offset="0"/><stop stop-opacity="1" stop-color="rgb(0%, 85.899353%, 87.098694%)" offset="0.125"/><stop stop-opacity="1" stop-color="rgb(0%, 85.899353%, 87.098694%)" offset="0.140625"/><stop stop-opacity="1" stop-color="rgb(0.138855%, 85.777283%, 87.117004%)" offset="0.148438"/><stop stop-opacity="1" stop-color="rgb(0.822449%, 85.18219%, 87.207031%)" offset="0.152344"/><stop stop-opacity="1" stop-color="rgb(1.368713%, 84.707642%, 87.278748%)" offset="0.15625"/><stop stop-opacity="1" stop-color="rgb(1.914978%, 84.233093%, 87.348938%)" offset="0.160156"/><stop stop-opacity="1" stop-color="rgb(2.461243%, 83.760071%, 87.420654%)" offset="0.164062"/><stop stop-opacity="1" stop-color="rgb(3.005981%, 83.285522%, 87.490845%)" offset="0.167969"/><stop stop-opacity="1" stop-color="rgb(3.552246%, 82.810974%, 87.562561%)" offset="0.171875"/><stop stop-opacity="1" stop-color="rgb(4.096985%, 82.336426%, 87.634277%)" offset="0.175781"/><stop stop-opacity="1" stop-color="rgb(4.64325%, 81.861877%, 87.705994%)" offset="0.179688"/><stop stop-opacity="1" stop-color="rgb(5.189514%, 81.387329%, 87.776184%)" offset="0.183594"/><stop stop-opacity="1" stop-color="rgb(5.735779%, 80.912781%, 87.8479%)" offset="0.1875"/><stop stop-opacity="1" stop-color="rgb(6.280518%, 80.438232%, 87.919617%)" offset="0.191406"/><stop stop-opacity="1" stop-color="rgb(6.826782%, 79.963684%, 87.991333%)" offset="0.195312"/><stop stop-opacity="1" stop-color="rgb(7.371521%, 79.489136%, 88.061523%)" offset="0.199219"/><stop stop-opacity="1" stop-color="rgb(7.917786%, 79.014587%, 88.13324%)" offset="0.203125"/><stop stop-opacity="1" stop-color="rgb(8.46405%, 78.540039%, 88.20343%)" offset="0.207031"/><stop stop-opacity="1" stop-color="rgb(9.010315%, 78.065491%, 88.275146%)" offset="0.210938"/><stop stop-opacity="1" stop-color="rgb(9.555054%, 77.590942%, 88.346863%)" offset="0.214844"/><stop stop-opacity="1" stop-color="rgb(10.101318%, 77.116394%, 88.418579%)" offset="0.21875"/><stop stop-opacity="1" stop-color="rgb(10.647583%, 76.641846%, 88.48877%)" offset="0.222656"/><stop stop-opacity="1" stop-color="rgb(11.193848%, 76.167297%, 88.560486%)" offset="0.226563"/><stop stop-opacity="1" stop-color="rgb(11.738586%, 75.692749%, 88.632202%)" offset="0.230469"/><stop stop-opacity="1" stop-color="rgb(12.284851%, 75.218201%, 88.703918%)" offset="0.234375"/><stop stop-opacity="1" stop-color="rgb(12.82959%, 74.743652%, 88.774109%)" offset="0.238281"/><stop stop-opacity="1" stop-color="rgb(13.375854%, 74.269104%, 88.845825%)" offset="0.242188"/><stop stop-opacity="1" stop-color="rgb(13.922119%, 73.794556%, 88.916016%)" offset="0.246094"/><stop stop-opacity="1" stop-color="rgb(14.468384%, 73.320007%, 88.987732%)" offset="0.25"/><stop stop-opacity="1" stop-color="rgb(15.013123%, 72.845459%, 89.059448%)" offset="0.253906"/><stop stop-opacity="1" stop-color="rgb(15.559387%, 72.370911%, 89.131165%)" offset="0.257812"/><stop stop-opacity="1" stop-color="rgb(16.105652%, 71.896362%, 89.201355%)" offset="0.261719"/><stop stop-opacity="1" stop-color="rgb(16.651917%, 71.421814%, 89.273071%)" offset="0.265625"/><stop stop-opacity="1" stop-color="rgb(17.196655%, 70.947266%, 89.344788%)" offset="0.269531"/><stop stop-opacity="1" stop-color="rgb(17.74292%, 70.472717%, 89.416504%)" offset="0.273438"/><stop stop-opacity="1" stop-color="rgb(18.287659%, 69.998169%, 89.486694%)" offset="0.277344"/><stop stop-opacity="1" stop-color="rgb(18.833923%, 69.523621%, 89.558411%)" offset="0.28125"/><stop stop-opacity="1" stop-color="rgb(19.380188%, 69.049072%, 89.628601%)" offset="0.285156"/><stop stop-opacity="1" stop-color="rgb(19.926453%, 68.574524%, 89.700317%)" offset="0.289062"/><stop stop-opacity="1" stop-color="rgb(20.471191%, 68.099976%, 89.772034%)" offset="0.292969"/><stop stop-opacity="1" stop-color="rgb(21.017456%, 67.625427%, 89.84375%)" offset="0.296875"/><stop stop-opacity="1" stop-color="rgb(21.563721%, 67.150879%, 89.91394%)" offset="0.300781"/><stop stop-opacity="1" stop-color="rgb(22.109985%, 66.676331%, 89.985657%)" offset="0.304688"/><stop stop-opacity="1" stop-color="rgb(22.654724%, 66.201782%, 90.057373%)" offset="0.308594"/><stop stop-opacity="1" stop-color="rgb(23.200989%, 65.727234%, 90.129089%)" offset="0.3125"/><stop stop-opacity="1" stop-color="rgb(23.745728%, 65.252686%, 90.19928%)" offset="0.316406"/><stop stop-opacity="1" stop-color="rgb(24.291992%, 64.778137%, 90.270996%)" offset="0.320313"/><stop stop-opacity="1" stop-color="rgb(24.838257%, 64.303589%, 90.341187%)" offset="0.324219"/><stop stop-opacity="1" stop-color="rgb(25.384521%, 63.829041%, 90.412903%)" offset="0.328125"/><stop stop-opacity="1" stop-color="rgb(25.92926%, 63.354492%, 90.484619%)" offset="0.332031"/><stop stop-opacity="1" stop-color="rgb(26.475525%, 62.879944%, 90.556335%)" offset="0.335938"/><stop stop-opacity="1" stop-color="rgb(27.020264%, 62.405396%, 90.626526%)" offset="0.339844"/><stop stop-opacity="1" stop-color="rgb(27.566528%, 61.930847%, 90.698242%)" offset="0.34375"/><stop stop-opacity="1" stop-color="rgb(28.112793%, 61.456299%, 90.769958%)" offset="0.347656"/><stop stop-opacity="1" stop-color="rgb(28.659058%, 60.98175%, 90.841675%)" offset="0.351562"/><stop stop-opacity="1" stop-color="rgb(29.203796%, 60.507202%, 90.911865%)" offset="0.355469"/><stop stop-opacity="1" stop-color="rgb(29.750061%, 60.032654%, 90.983582%)" offset="0.359375"/><stop stop-opacity="1" stop-color="rgb(30.296326%, 59.558105%, 91.055298%)" offset="0.363281"/><stop stop-opacity="1" stop-color="rgb(30.84259%, 59.083557%, 91.127014%)" offset="0.367188"/><stop stop-opacity="1" stop-color="rgb(31.387329%, 58.609009%, 91.197205%)" offset="0.371094"/><stop stop-opacity="1" stop-color="rgb(31.933594%, 58.13446%, 91.268921%)" offset="0.375"/><stop stop-opacity="1" stop-color="rgb(32.478333%, 57.659912%, 91.339111%)" offset="0.378906"/><stop stop-opacity="1" stop-color="rgb(33.024597%, 57.185364%, 91.410828%)" offset="0.382812"/><stop stop-opacity="1" stop-color="rgb(33.570862%, 56.710815%, 91.482544%)" offset="0.386719"/><stop stop-opacity="1" stop-color="rgb(34.117126%, 56.236267%, 91.55426%)" offset="0.390625"/><stop stop-opacity="1" stop-color="rgb(34.661865%, 55.761719%, 91.624451%)" offset="0.394531"/><stop stop-opacity="1" stop-color="rgb(35.20813%, 55.28717%, 91.696167%)" offset="0.398438"/><stop stop-opacity="1" stop-color="rgb(35.754395%, 54.812622%, 91.767883%)" offset="0.402344"/><stop stop-opacity="1" stop-color="rgb(36.300659%, 54.338074%, 91.8396%)" offset="0.40625"/><stop stop-opacity="1" stop-color="rgb(36.845398%, 53.863525%, 91.90979%)" offset="0.410156"/><stop stop-opacity="1" stop-color="rgb(37.391663%, 53.388977%, 91.981506%)" offset="0.414062"/><stop stop-opacity="1" stop-color="rgb(37.936401%, 52.914429%, 92.051697%)" offset="0.417969"/><stop stop-opacity="1" stop-color="rgb(38.482666%, 52.43988%, 92.123413%)" offset="0.421875"/><stop stop-opacity="1" stop-color="rgb(39.028931%, 51.965332%, 92.195129%)" offset="0.425781"/><stop stop-opacity="1" stop-color="rgb(39.575195%, 51.490784%, 92.266846%)" offset="0.429688"/><stop stop-opacity="1" stop-color="rgb(40.119934%, 51.016235%, 92.337036%)" offset="0.433594"/><stop stop-opacity="1" stop-color="rgb(40.666199%, 50.541687%, 92.408752%)" offset="0.4375"/><stop stop-opacity="1" stop-color="rgb(41.212463%, 50.067139%, 92.480469%)" offset="0.441406"/><stop stop-opacity="1" stop-color="rgb(41.758728%, 49.59259%, 92.552185%)" offset="0.445312"/><stop stop-opacity="1" stop-color="rgb(42.303467%, 49.118042%, 92.622375%)" offset="0.449219"/><stop stop-opacity="1" stop-color="rgb(42.849731%, 48.643494%, 92.694092%)" offset="0.453125"/><stop stop-opacity="1" stop-color="rgb(43.39447%, 48.168945%, 92.764282%)" offset="0.457031"/><stop stop-opacity="1" stop-color="rgb(43.940735%, 47.694397%, 92.835999%)" offset="0.460938"/><stop stop-opacity="1" stop-color="rgb(44.487%, 47.219849%, 92.907715%)" offset="0.464844"/><stop stop-opacity="1" stop-color="rgb(45.033264%, 46.7453%, 92.979431%)" offset="0.46875"/><stop stop-opacity="1" stop-color="rgb(45.578003%, 46.270752%, 93.049622%)" offset="0.472656"/><stop stop-opacity="1" stop-color="rgb(46.124268%, 45.796204%, 93.121338%)" offset="0.476562"/><stop stop-opacity="1" stop-color="rgb(46.670532%, 45.321655%, 93.193054%)" offset="0.480469"/><stop stop-opacity="1" stop-color="rgb(47.216797%, 44.847107%, 93.264771%)" offset="0.484375"/><stop stop-opacity="1" stop-color="rgb(47.761536%, 44.372559%, 93.334961%)" offset="0.488281"/><stop stop-opacity="1" stop-color="rgb(48.3078%, 43.89801%, 93.406677%)" offset="0.492188"/><stop stop-opacity="1" stop-color="rgb(48.852539%, 43.423462%, 93.476868%)" offset="0.496094"/><stop stop-opacity="1" stop-color="rgb(49.398804%, 42.948914%, 93.548584%)" offset="0.5"/><stop stop-opacity="1" stop-color="rgb(49.945068%, 42.474365%, 93.6203%)" offset="0.503906"/><stop stop-opacity="1" stop-color="rgb(50.491333%, 41.999817%, 93.692017%)" offset="0.507813"/><stop stop-opacity="1" stop-color="rgb(51.036072%, 41.525269%, 93.762207%)" offset="0.511719"/><stop stop-opacity="1" stop-color="rgb(51.582336%, 41.05072%, 93.833923%)" offset="0.515625"/><stop stop-opacity="1" stop-color="rgb(52.127075%, 40.576172%, 93.90564%)" offset="0.519531"/><stop stop-opacity="1" stop-color="rgb(52.67334%, 40.101624%, 93.977356%)" offset="0.523438"/><stop stop-opacity="1" stop-color="rgb(53.219604%, 39.627075%, 94.047546%)" offset="0.527344"/><stop stop-opacity="1" stop-color="rgb(53.765869%, 39.152527%, 94.119263%)" offset="0.53125"/><stop stop-opacity="1" stop-color="rgb(54.310608%, 38.677979%, 94.189453%)" offset="0.535156"/><stop stop-opacity="1" stop-color="rgb(54.856873%, 38.20343%, 94.261169%)" offset="0.539062"/><stop stop-opacity="1" stop-color="rgb(55.403137%, 37.728882%, 94.332886%)" offset="0.542969"/><stop stop-opacity="1" stop-color="rgb(55.949402%, 37.254333%, 94.404602%)" offset="0.546875"/><stop stop-opacity="1" stop-color="rgb(56.494141%, 36.779785%, 94.474792%)" offset="0.550781"/><stop stop-opacity="1" stop-color="rgb(57.040405%, 36.305237%, 94.546509%)" offset="0.554688"/><stop stop-opacity="1" stop-color="rgb(57.585144%, 35.830688%, 94.618225%)" offset="0.558594"/><stop stop-opacity="1" stop-color="rgb(58.131409%, 35.35614%, 94.689941%)" offset="0.5625"/><stop stop-opacity="1" stop-color="rgb(58.677673%, 34.881592%, 94.760132%)" offset="0.566406"/><stop stop-opacity="1" stop-color="rgb(59.223938%, 34.407043%, 94.831848%)" offset="0.570312"/><stop stop-opacity="1" stop-color="rgb(59.768677%, 33.932495%, 94.902039%)" offset="0.574219"/><stop stop-opacity="1" stop-color="rgb(60.314941%, 33.457947%, 94.973755%)" offset="0.578125"/><stop stop-opacity="1" stop-color="rgb(60.861206%, 32.983398%, 95.045471%)" offset="0.582031"/><stop stop-opacity="1" stop-color="rgb(61.407471%, 32.50885%, 95.117188%)" offset="0.585938"/><stop stop-opacity="1" stop-color="rgb(61.952209%, 32.034302%, 95.187378%)" offset="0.589844"/><stop stop-opacity="1" stop-color="rgb(62.498474%, 31.559753%, 95.259094%)" offset="0.59375"/><stop stop-opacity="1" stop-color="rgb(63.043213%, 31.085205%, 95.330811%)" offset="0.597656"/><stop stop-opacity="1" stop-color="rgb(63.589478%, 30.610657%, 95.402527%)" offset="0.601562"/><stop stop-opacity="1" stop-color="rgb(64.135742%, 30.136108%, 95.472717%)" offset="0.605469"/><stop stop-opacity="1" stop-color="rgb(64.682007%, 29.66156%, 95.544434%)" offset="0.609375"/><stop stop-opacity="1" stop-color="rgb(65.226746%, 29.187012%, 95.61615%)" offset="0.613281"/><stop stop-opacity="1" stop-color="rgb(65.77301%, 28.712463%, 95.687866%)" offset="0.617188"/><stop stop-opacity="1" stop-color="rgb(66.319275%, 28.237915%, 95.758057%)" offset="0.621094"/><stop stop-opacity="1" stop-color="rgb(66.86554%, 27.763367%, 95.829773%)" offset="0.625"/><stop stop-opacity="1" stop-color="rgb(67.410278%, 27.288818%, 95.899963%)" offset="0.628906"/><stop stop-opacity="1" stop-color="rgb(67.956543%, 26.81427%, 95.97168%)" offset="0.632812"/><stop stop-opacity="1" stop-color="rgb(68.501282%, 26.339722%, 96.043396%)" offset="0.636719"/><stop stop-opacity="1" stop-color="rgb(69.047546%, 25.866699%, 96.115112%)" offset="0.640625"/><stop stop-opacity="1" stop-color="rgb(69.593811%, 25.392151%, 96.185303%)" offset="0.644531"/><stop stop-opacity="1" stop-color="rgb(70.140076%, 24.917603%, 96.257019%)" offset="0.648438"/><stop stop-opacity="1" stop-color="rgb(70.684814%, 24.443054%, 96.328735%)" offset="0.652344"/><stop stop-opacity="1" stop-color="rgb(71.231079%, 23.968506%, 96.400452%)" offset="0.65625"/><stop stop-opacity="1" stop-color="rgb(71.775818%, 23.493958%, 96.470642%)" offset="0.660156"/><stop stop-opacity="1" stop-color="rgb(72.322083%, 23.019409%, 96.542358%)" offset="0.664062"/><stop stop-opacity="1" stop-color="rgb(72.868347%, 22.544861%, 96.612549%)" offset="0.667969"/><stop stop-opacity="1" stop-color="rgb(73.414612%, 22.070312%, 96.684265%)" offset="0.671875"/><stop stop-opacity="1" stop-color="rgb(73.959351%, 21.595764%, 96.755981%)" offset="0.675781"/><stop stop-opacity="1" stop-color="rgb(74.505615%, 21.121216%, 96.827698%)" offset="0.679688"/><stop stop-opacity="1" stop-color="rgb(75.05188%, 20.646667%, 96.897888%)" offset="0.683594"/><stop stop-opacity="1" stop-color="rgb(75.598145%, 20.172119%, 96.969604%)" offset="0.6875"/><stop stop-opacity="1" stop-color="rgb(76.142883%, 19.697571%, 97.041321%)" offset="0.691406"/><stop stop-opacity="1" stop-color="rgb(76.689148%, 19.223022%, 97.113037%)" offset="0.695313"/><stop stop-opacity="1" stop-color="rgb(77.233887%, 18.748474%, 97.183228%)" offset="0.699219"/><stop stop-opacity="1" stop-color="rgb(77.780151%, 18.273926%, 97.254944%)" offset="0.703125"/><stop stop-opacity="1" stop-color="rgb(78.326416%, 17.799377%, 97.325134%)" offset="0.707031"/><stop stop-opacity="1" stop-color="rgb(78.872681%, 17.324829%, 97.396851%)" offset="0.710938"/><stop stop-opacity="1" stop-color="rgb(79.417419%, 16.850281%, 97.468567%)" offset="0.714844"/><stop stop-opacity="1" stop-color="rgb(79.963684%, 16.375732%, 97.540283%)" offset="0.71875"/><stop stop-opacity="1" stop-color="rgb(80.509949%, 15.901184%, 97.610474%)" offset="0.722656"/><stop stop-opacity="1" stop-color="rgb(81.056213%, 15.426636%, 97.68219%)" offset="0.726563"/><stop stop-opacity="1" stop-color="rgb(81.600952%, 14.952087%, 97.753906%)" offset="0.730469"/><stop stop-opacity="1" stop-color="rgb(82.147217%, 14.477539%, 97.825623%)" offset="0.734375"/><stop stop-opacity="1" stop-color="rgb(82.691956%, 14.002991%, 97.895813%)" offset="0.738281"/><stop stop-opacity="1" stop-color="rgb(83.23822%, 13.528442%, 97.967529%)" offset="0.742188"/><stop stop-opacity="1" stop-color="rgb(83.784485%, 13.053894%, 98.03772%)" offset="0.746094"/><stop stop-opacity="1" stop-color="rgb(84.33075%, 12.579346%, 98.109436%)" offset="0.75"/><stop stop-opacity="1" stop-color="rgb(84.875488%, 12.104797%, 98.181152%)" offset="0.753906"/><stop stop-opacity="1" stop-color="rgb(85.421753%, 11.630249%, 98.252869%)" offset="0.757812"/><stop stop-opacity="1" stop-color="rgb(85.968018%, 11.155701%, 98.323059%)" offset="0.761719"/><stop stop-opacity="1" stop-color="rgb(86.514282%, 10.681152%, 98.394775%)" offset="0.765625"/><stop stop-opacity="1" stop-color="rgb(87.059021%, 10.206604%, 98.466492%)" offset="0.769531"/><stop stop-opacity="1" stop-color="rgb(87.605286%, 9.732056%, 98.538208%)" offset="0.773438"/><stop stop-opacity="1" stop-color="rgb(88.150024%, 9.257507%, 98.608398%)" offset="0.777344"/><stop stop-opacity="1" stop-color="rgb(88.696289%, 8.782959%, 98.680115%)" offset="0.78125"/><stop stop-opacity="1" stop-color="rgb(89.242554%, 8.308411%, 98.750305%)" offset="0.785156"/><stop stop-opacity="1" stop-color="rgb(89.788818%, 7.833862%, 98.822021%)" offset="0.789062"/><stop stop-opacity="1" stop-color="rgb(90.333557%, 7.359314%, 98.893738%)" offset="0.792969"/><stop stop-opacity="1" stop-color="rgb(90.879822%, 6.884766%, 98.965454%)" offset="0.796875"/><stop stop-opacity="1" stop-color="rgb(91.424561%, 6.410217%, 99.035645%)" offset="0.800781"/><stop stop-opacity="1" stop-color="rgb(91.970825%, 5.935669%, 99.107361%)" offset="0.804688"/><stop stop-opacity="1" stop-color="rgb(92.51709%, 5.461121%, 99.179077%)" offset="0.808594"/><stop stop-opacity="1" stop-color="rgb(93.063354%, 4.986572%, 99.250793%)" offset="0.8125"/><stop stop-opacity="1" stop-color="rgb(93.608093%, 4.512024%, 99.320984%)" offset="0.816406"/><stop stop-opacity="1" stop-color="rgb(94.154358%, 4.037476%, 99.3927%)" offset="0.820313"/><stop stop-opacity="1" stop-color="rgb(94.700623%, 3.562927%, 99.462891%)" offset="0.824219"/><stop stop-opacity="1" stop-color="rgb(95.246887%, 3.088379%, 99.534607%)" offset="0.828125"/><stop stop-opacity="1" stop-color="rgb(95.791626%, 2.613831%, 99.606323%)" offset="0.832031"/><stop stop-opacity="1" stop-color="rgb(96.337891%, 2.139282%, 99.67804%)" offset="0.835938"/><stop stop-opacity="1" stop-color="rgb(96.882629%, 1.664734%, 99.74823%)" offset="0.839844"/><stop stop-opacity="1" stop-color="rgb(97.428894%, 1.190186%, 99.819946%)" offset="0.84375"/><stop stop-opacity="1" stop-color="rgb(97.975159%, 0.715637%, 99.891663%)" offset="0.847656"/><stop stop-opacity="1" stop-color="rgb(98.521423%, 0.241089%, 99.963379%)" offset="0.851562"/><stop stop-opacity="1" stop-color="rgb(98.660278%, 0.120544%, 99.981689%)" offset="0.859375"/><stop stop-opacity="1" stop-color="rgb(98.799133%, 0%, 100%)" offset="0.875"/><stop stop-opacity="1" stop-color="rgb(98.799133%, 0%, 100%)" offset="1"/></linearGradient></defs><g clip-path="url(#3e6a61d054)"><rect x="-9.6" fill="url(#dc0d40e8e0)" width="115.2" y="-9.6" height="115.199999"/></g><path fill="#fffffe" d="M 32.757812 74.324219 C 32.550781 74.324219 32.363281 74.25 32.210938 74.101562 L 22.3125 64.179688 C 22.011719 63.882812 22.011719 63.394531 22.3125 63.09375 L 64.6875 20.71875 C 64.988281 20.417969 65.476562 20.417969 65.773438 20.71875 L 75.675781 30.617188 C 75.824219 30.769531 75.898438 30.957031 75.898438 31.164062 C 75.898438 31.351562 75.824219 31.554688 75.675781 31.707031 L 33.300781 74.082031 C 33.148438 74.230469 32.960938 74.324219 32.757812 74.324219 Z M 23.945312 63.636719 L 32.773438 72.46875 L 74.0625 31.179688 L 65.230469 22.351562 Z M 23.945312 63.636719 " fill-opacity="1" fill-rule="nonzero"/><path fill="#fffffe" d="M 58.070312 56.042969 C 57.882812 56.042969 57.675781 55.96875 57.523438 55.820312 C 57.226562 55.519531 57.226562 55.03125 57.523438 54.730469 L 71.625 40.632812 L 68.664062 37.667969 C 68.363281 37.367188 68.363281 36.882812 68.664062 36.582031 C 68.960938 36.28125 69.449219 36.28125 69.75 36.582031 L 73.257812 40.085938 C 73.554688 40.386719 73.554688 40.875 73.257812 41.175781 L 58.613281 55.835938 C 58.445312 55.96875 58.257812 56.042969 58.070312 56.042969 Z M 58.070312 56.042969 " fill-opacity="1" fill-rule="nonzero"/><path fill="#fffffe" d="M 35.230469 71.851562 C 35.042969 71.851562 34.835938 71.773438 34.6875 71.625 L 24.789062 61.726562 C 24.488281 61.425781 24.488281 60.9375 24.789062 60.636719 C 25.085938 60.335938 25.574219 60.335938 25.875 60.636719 L 35.773438 70.539062 C 36.074219 70.835938 36.074219 71.324219 35.773438 71.625 C 35.625 71.773438 35.417969 71.851562 35.230469 71.851562 Z M 35.230469 71.851562 " fill-opacity="1" fill-rule="nonzero"/><path fill="#fffffe" d="M 23.007812 75.898438 C 22.914062 75.898438 22.820312 75.882812 22.742188 75.84375 L 20.210938 74.90625 C 19.96875 74.8125 19.78125 74.605469 19.726562 74.363281 C 19.667969 74.101562 19.742188 73.835938 19.929688 73.648438 L 23.382812 70.199219 C 23.679688 69.898438 24.167969 69.898438 24.46875 70.199219 C 24.769531 70.5 24.769531 70.988281 24.46875 71.289062 L 21.863281 73.894531 L 22.820312 74.230469 L 25.125 71.925781 C 25.425781 71.625 25.914062 71.625 26.210938 71.925781 C 26.511719 72.226562 26.511719 72.710938 26.210938 73.011719 L 23.570312 75.65625 C 23.417969 75.804688 23.210938 75.898438 23.007812 75.898438 Z M 23.007812 75.898438 " fill-opacity="1" fill-rule="nonzero"/><path fill="#fffffe" d="M 72.863281 29.679688 C 72.675781 29.679688 72.46875 29.605469 72.320312 29.457031 C 72.019531 29.15625 72.019531 28.667969 72.320312 28.367188 L 74.4375 26.25 L 70.125 21.957031 L 68.007812 24.074219 C 67.707031 24.375 67.21875 24.375 66.917969 24.074219 C 66.617188 23.773438 66.617188 23.289062 66.917969 22.988281 L 69.582031 20.324219 C 69.882812 20.023438 70.367188 20.023438 70.667969 20.324219 L 76.050781 25.707031 C 76.351562 26.007812 76.351562 26.492188 76.050781 26.792969 L 73.386719 29.457031 C 73.257812 29.605469 73.070312 29.679688 72.863281 29.679688 Z M 72.863281 29.679688 " fill-opacity="1" fill-rule="nonzero"/><path fill="#fffffe" d="M 27.335938 74.925781 C 27.148438 74.925781 26.945312 74.851562 26.792969 74.699219 L 21.710938 69.617188 C 21.5625 69.46875 21.488281 69.28125 21.488281 69.074219 C 21.488281 68.867188 21.5625 68.679688 21.710938 68.53125 L 24.710938 65.53125 C 25.011719 65.230469 25.5 65.230469 25.800781 65.53125 C 26.101562 65.832031 26.101562 66.320312 25.800781 66.617188 L 23.324219 69.09375 L 27.335938 73.105469 L 29.8125 70.632812 C 30.113281 70.332031 30.601562 70.332031 30.898438 70.632812 C 31.199219 70.929688 31.199219 71.417969 30.898438 71.71875 L 27.898438 74.71875 C 27.730469 74.851562 27.523438 74.925781 27.335938 74.925781 Z M 27.335938 74.925781 " fill-opacity="1" fill-rule="nonzero"/><path fill="#fffffe" d="M 40.386719 59.195312 C 39.5625 59.195312 38.757812 58.894531 38.136719 58.257812 C 36.898438 57.019531 36.898438 54.992188 38.136719 53.757812 L 55.351562 36.542969 C 56.585938 35.304688 58.613281 35.304688 59.851562 36.542969 C 61.085938 37.78125 61.085938 39.804688 59.851562 41.042969 L 42.65625 58.257812 C 42.019531 58.875 41.210938 59.195312 40.386719 59.195312 Z M 57.582031 37.164062 C 57.148438 37.164062 56.71875 37.332031 56.417969 37.648438 L 39.207031 54.84375 C 38.570312 55.480469 38.570312 56.53125 39.207031 57.167969 C 39.84375 57.804688 40.894531 57.804688 41.53125 57.167969 L 58.742188 39.957031 C 59.382812 39.320312 59.382812 38.269531 58.742188 37.632812 C 58.425781 37.332031 58.03125 37.164062 57.582031 37.164062 Z M 57.582031 37.164062 " fill-opacity="1" fill-rule="nonzero"/><path fill="#fffffe" d="M 72.1875 34.894531 C 72 34.894531 71.792969 34.820312 71.644531 34.667969 L 61.742188 24.75 C 61.445312 24.449219 61.445312 23.960938 61.742188 23.664062 C 62.042969 23.363281 62.53125 23.363281 62.832031 23.664062 L 72.75 33.5625 C 73.050781 33.863281 73.050781 34.351562 72.75 34.648438 C 72.582031 34.835938 72.375 34.894531 72.1875 34.894531 Z M 72.1875 34.894531 " fill-opacity="1" fill-rule="nonzero"/></svg>